<?xml version="1.0" encoding="UTF-8" standalone="no"?>
<svg width="200" height="45" viewBox="0 0 339.771 110.231" xmlns="http://www.w3.org/2000/svg"><g id="svgGroup" stroke-linecap="round" fill-rule="evenodd" font-size="9pt" stroke="#ffffff" stroke-width="0.25mm" fill="#ffffff" style="stroke: #ffffff; stroke-width: 0.25mm; fill: #ffffff "><path d="M 178.052 108.766 L 152.417 108.766 L 152.417 1.686 L 181.421 1.686 Q 198.56 1.686 210.205 7.692 A 40.02 40.02 0 0 1 227.856 25.379 A 51.241 51.241 0 0 1 232.349 38.369 Q 233.579 44.242 233.809 51.023 A 93.525 93.525 0 0 1 233.862 54.2 Q 233.862 69.411 229.31 80.464 A 47.187 47.187 0 0 1 227.527 84.303 Q 221.191 96.461 208.777 102.613 A 55.173 55.173 0 0 1 195.843 107.029 Q 187.779 108.766 178.052 108.766 Z M 283.96 108.766 L 258.325 108.766 L 258.325 1.686 L 287.329 1.686 Q 304.468 1.686 316.113 7.692 A 40.02 40.02 0 0 1 333.765 25.379 A 51.241 51.241 0 0 1 338.257 38.369 Q 339.487 44.242 339.717 51.023 A 93.525 93.525 0 0 1 339.771 54.2 Q 339.771 69.411 335.218 80.464 A 47.187 47.187 0 0 1 333.435 84.303 Q 327.1 96.461 314.685 102.613 A 55.173 55.173 0 0 1 301.751 107.029 Q 293.687 108.766 283.96 108.766 Z M 126.931 68.168 A 86.502 86.502 0 0 0 127.881 55.079 A 104.793 104.793 0 0 0 127.858 52.89 Q 127.705 45.56 126.517 39.14 A 60.697 60.697 0 0 0 122.424 25.599 A 50.326 50.326 0 0 0 121.31 23.243 A 40.902 40.902 0 0 0 106.384 6.629 Q 95.801 0.001 80.566 0.001 Q 64.673 0.001 53.87 6.959 A 42.831 42.831 0 0 0 47.848 11.635 A 44.646 44.646 0 0 0 37.537 26.295 A 61.376 61.376 0 0 0 33.222 40.542 A 81.418 81.418 0 0 0 32.007 54.933 A 90.719 90.719 0 0 0 32.429 63.813 A 72.447 72.447 0 0 0 35.01 77.308 A 57.877 57.877 0 0 0 36.697 82.206 A 47.842 47.842 0 0 0 43.982 94.813 Q 49.951 102.174 58.96 106.202 A 44.61 44.61 0 0 0 69.462 109.36 A 60.545 60.545 0 0 0 79.98 110.231 A 60.45 60.45 0 0 0 89.859 109.46 A 44.619 44.619 0 0 0 100.891 106.202 Q 109.863 102.174 115.869 94.85 A 45.128 45.128 0 0 0 120.103 88.703 A 52.667 52.667 0 0 0 124.878 77.418 A 69.218 69.218 0 0 0 126.931 68.168 Z M 39.917 55.006 A 81.079 81.079 0 0 0 40.866 67.716 A 59.729 59.729 0 0 0 44.238 80.311 A 38.803 38.803 0 0 0 50.668 91.24 A 34.635 34.635 0 0 0 57.495 97.413 A 33.634 33.634 0 0 0 69.348 102.46 Q 74.28 103.566 80.054 103.566 A 51.353 51.353 0 0 0 89.691 102.711 Q 95.516 101.598 100.171 99.035 A 30.13 30.13 0 0 0 102.686 97.486 A 34.956 34.956 0 0 0 114.662 83.147 A 43.367 43.367 0 0 0 115.796 80.494 Q 119.982 69.741 120.043 55.503 A 98.469 98.469 0 0 0 120.044 55.079 Q 120.044 39.053 115.158 28.038 A 39.76 39.76 0 0 0 110.046 19.483 A 32.282 32.282 0 0 0 90.38 7.733 A 49.599 49.599 0 0 0 80.566 6.813 A 50.959 50.959 0 0 0 70.576 7.74 Q 63.337 9.187 57.825 12.892 A 35.969 35.969 0 0 0 45.078 28.126 A 43.992 43.992 0 0 0 44.348 29.811 A 57.708 57.708 0 0 0 40.827 42.718 A 79.085 79.085 0 0 0 39.917 55.006 Z M 179.736 8.351 L 159.961 8.351 L 159.961 102.101 L 177.686 102.101 A 78.497 78.497 0 0 0 191.323 100.996 Q 205.589 98.474 213.94 90.199 A 37.285 37.285 0 0 0 222.949 75.322 Q 225.952 66.395 225.952 54.493 Q 225.952 39.186 220.972 28.932 Q 215.991 18.678 205.737 13.514 Q 197.286 9.258 185.103 8.51 A 87.596 87.596 0 0 0 179.736 8.351 Z M 285.645 8.351 L 265.869 8.351 L 265.869 102.101 L 283.594 102.101 A 78.497 78.497 0 0 0 297.231 100.996 Q 311.497 98.474 319.849 90.199 A 37.285 37.285 0 0 0 328.857 75.322 Q 331.86 66.395 331.86 54.493 Q 331.86 39.186 326.88 28.932 Q 321.899 18.678 311.646 13.514 Q 303.194 9.258 291.011 8.51 A 87.596 87.596 0 0 0 285.645 8.351 Z M 7.544 108.766 L 0 108.766 L 0 1.686 L 7.544 1.686 L 7.544 108.766 Z" /></g></svg>